<svg xmlns="http://www.w3.org/2000/svg" viewBox="0 0 960 910" width="960" height="910" role="img" aria-labelledby="t d">
<title id="t">Held-out results for every listed skill, loaded runs only</title>
<desc id="d">Horizontal bars from zero showing the mean rubric difference with the skill minus without it, best first, with each skill's loaded-only wins, losses and ties. 26 of 26 skills won more tasks than they lost.</desc>
<style>
:root{--bg:#ffffff;--ink:#1f2328;--muted:#59636e;--rule:#d1d9e0;--grid:#eaeef2;--gain:#1b7f79;--loss:#b35a1f}
@media (prefers-color-scheme:dark){:root{--bg:#0d1117;--ink:#e6edf3;--muted:#9198a1;--rule:#3d444d;--grid:#21262d;--gain:#3fb8af;--loss:#e0905a}}
text{font-family:-apple-system,BlinkMacSystemFont,"Segoe UI",Helvetica,Arial,sans-serif;fill:var(--ink);font-size:13px;font-variant-numeric:tabular-nums}
.title{font-size:22px;font-weight:700}
.sub,.head,.tick,.note,.tag{fill:var(--muted)}
.sub{font-size:14px}
.head,.tick{font-size:12px}
.name{font-size:13px}
.val{font-weight:700}
.tag{font-size:12px;font-style:italic}
.bar-gain{fill:var(--gain)}
.bar-loss{fill:var(--loss)}
.hollow-gain{fill:var(--gain);fill-opacity:.12;stroke:var(--gain);stroke-width:1.5}
.hollow-loss{fill:var(--loss);fill-opacity:.12;stroke:var(--loss);stroke-width:1.5}
.zero{stroke:var(--muted);stroke-width:1.5}
.grid{stroke:var(--grid);stroke-width:1}
.row{stroke:var(--grid);stroke-width:1}
.panel{fill:var(--bg);stroke:var(--rule);stroke-width:1}
</style>
<rect class="panel" x="0.5" y="0.5" width="959" height="909" rx="10"/>
<text class="title" x="24" y="46">With the skill loaded, 26 of 26 skills won more tasks than they lost</text>
<text class="sub" x="24" y="70">Mean rubric score with the skill minus without it, on tasks the skill writers never saw. Best first.</text>
<text class="head" x="280" y="94">Rubric difference (bars start at zero)</text>
<text class="head" x="800" y="94" text-anchor="end">Wins / losses / ties</text>
<text class="head" x="920" y="94" text-anchor="end">Loaded tasks</text>
<text class="tick" x="320" y="114" text-anchor="middle">0</text>
<line class="grid" x1="400" y1="120" x2="400" y2="804"/>
<text class="tick" x="400" y="114" text-anchor="middle">+0.20</text>
<line class="grid" x1="480" y1="120" x2="480" y2="804"/>
<text class="tick" x="480" y="114" text-anchor="middle">+0.40</text>
<line class="grid" x1="560" y1="120" x2="560" y2="804"/>
<text class="tick" x="560" y="114" text-anchor="middle">+0.60</text>
<line class="grid" x1="640" y1="120" x2="640" y2="804"/>
<text class="tick" x="640" y="114" text-anchor="middle">+0.80</text>
<line class="row" x1="24" y1="154" x2="936" y2="154"/>
<text class="name" x="24" y="145.5">fair-persuasion</text>
<rect class="bar-gain" x="320" y="134" width="314" height="14" rx="2"/>
<text class="val" x="640" y="145.5">+0.79</text>
<text x="800" y="145.5" text-anchor="end">6 / 1 / 2</text>
<text x="920" y="145.5" text-anchor="end">9</text>
<line class="row" x1="24" y1="180" x2="936" y2="180"/>
<text class="name" x="24" y="171.5">practice-and-assessment</text>
<rect class="bar-gain" x="320" y="160" width="243.6" height="14" rx="2"/>
<text class="val" x="569.6" y="171.5">+0.61</text>
<text x="800" y="171.5" text-anchor="end">6 / 2 / 0</text>
<text x="920" y="171.5" text-anchor="end">8</text>
<line class="row" x1="24" y1="206" x2="936" y2="206"/>
<text class="name" x="24" y="197.5">headlines-and-leads</text>
<rect class="bar-gain" x="320" y="186" width="202.8" height="14" rx="2"/>
<text class="val" x="528.8" y="197.5">+0.51</text>
<text x="800" y="197.5" text-anchor="end">7 / 1 / 1</text>
<text x="920" y="197.5" text-anchor="end">9</text>
<line class="row" x1="24" y1="232" x2="936" y2="232"/>
<text class="name" x="24" y="223.5">data-tables</text>
<rect class="bar-gain" x="320" y="212" width="200.8" height="14" rx="2"/>
<text class="val" x="526.8" y="223.5">+0.50†</text>
<text x="800" y="223.5" text-anchor="end">5 / 3 / 1</text>
<text x="920" y="223.5" text-anchor="end">9</text>
<line class="row" x1="24" y1="258" x2="936" y2="258"/>
<text class="name" x="24" y="249.5">design-critique</text>
<rect class="hollow-gain" x="320" y="238" width="200.4" height="14" rx="2"/>
<text class="val" x="526.4" y="249.5">+0.50<tspan class="tag" dx="6">marginal</tspan></text>
<text x="800" y="249.5" text-anchor="end">4 / 1 / 1</text>
<text x="920" y="249.5" text-anchor="end">6</text>
<line class="row" x1="24" y1="284" x2="936" y2="284"/>
<text class="name" x="24" y="275.5">email-and-sequences</text>
<rect class="bar-gain" x="320" y="264" width="192.8" height="14" rx="2"/>
<text class="val" x="518.8" y="275.5">+0.48</text>
<text x="800" y="275.5" text-anchor="end">6 / 1 / 2</text>
<text x="920" y="275.5" text-anchor="end">9</text>
<line class="row" x1="24" y1="310" x2="936" y2="310"/>
<text class="name" x="24" y="301.5">editing-and-cutting</text>
<rect class="bar-gain" x="320" y="290" width="171.2" height="14" rx="2"/>
<text class="val" x="497.2" y="301.5">+0.43</text>
<text x="800" y="301.5" text-anchor="end">5 / 0 / 4</text>
<text x="920" y="301.5" text-anchor="end">9</text>
<line class="row" x1="24" y1="336" x2="936" y2="336"/>
<text class="name" x="24" y="327.5">website-copy-audit</text>
<rect class="hollow-gain" x="320" y="316" width="163.2" height="14" rx="2"/>
<text class="val" x="489.2" y="327.5">+0.41<tspan class="tag" dx="6">marginal</tspan></text>
<text x="800" y="327.5" text-anchor="end">4 / 2 / 0</text>
<text x="920" y="327.5" text-anchor="end">6</text>
<line class="row" x1="24" y1="362" x2="936" y2="362"/>
<text class="name" x="24" y="353.5">brand-identity</text>
<rect class="bar-gain" x="320" y="342" width="160.8" height="14" rx="2"/>
<text class="val" x="486.8" y="353.5">+0.40</text>
<text x="800" y="353.5" text-anchor="end">5 / 2 / 3</text>
<text x="920" y="353.5" text-anchor="end">10</text>
<line class="row" x1="24" y1="388" x2="936" y2="388"/>
<text class="name" x="24" y="379.5">responsive-layout</text>
<rect class="hollow-gain" x="320" y="368" width="158.8" height="14" rx="2"/>
<text class="val" x="484.8" y="379.5">+0.40†<tspan class="tag" dx="6">marginal</tspan></text>
<text x="800" y="379.5" text-anchor="end">3 / 2 / 1</text>
<text x="920" y="379.5" text-anchor="end">6</text>
<line class="row" x1="24" y1="414" x2="936" y2="414"/>
<text class="name" x="24" y="405.5">visual-hierarchy</text>
<rect class="bar-gain" x="320" y="394" width="151.2" height="14" rx="2"/>
<text class="val" x="477.2" y="405.5">+0.38</text>
<text x="800" y="405.5" text-anchor="end">8 / 0 / 2</text>
<text x="920" y="405.5" text-anchor="end">10</text>
<line class="row" x1="24" y1="440" x2="936" y2="440"/>
<text class="name" x="24" y="431.5">landing-page-copy</text>
<rect class="bar-gain" x="320" y="420" width="141.6" height="14" rx="2"/>
<text class="val" x="467.6" y="431.5">+0.35</text>
<text x="800" y="431.5" text-anchor="end">5 / 2 / 2</text>
<text x="920" y="431.5" text-anchor="end">9</text>
<line class="row" x1="24" y1="466" x2="936" y2="466"/>
<text class="name" x="24" y="457.5">form-design</text>
<rect class="bar-gain" x="320" y="446" width="135.2" height="14" rx="2"/>
<text class="val" x="461.2" y="457.5">+0.34†</text>
<text x="800" y="457.5" text-anchor="end">6 / 0 / 4</text>
<text x="920" y="457.5" text-anchor="end">10</text>
<line class="row" x1="24" y1="492" x2="936" y2="492"/>
<text class="name" x="24" y="483.5">ux-microcopy</text>
<rect class="bar-gain" x="320" y="472" width="132" height="14" rx="2"/>
<text class="val" x="458" y="483.5">+0.33</text>
<text x="800" y="483.5" text-anchor="end">6 / 1 / 2</text>
<text x="920" y="483.5" text-anchor="end">9</text>
<line class="row" x1="24" y1="518" x2="936" y2="518"/>
<text class="name" x="24" y="509.5">typesetting</text>
<rect class="bar-gain" x="320" y="498" width="128" height="14" rx="2"/>
<text class="val" x="454" y="509.5">+0.32</text>
<text x="800" y="509.5" text-anchor="end">6 / 2 / 1</text>
<text x="920" y="509.5" text-anchor="end">9</text>
<line class="row" x1="24" y1="544" x2="936" y2="544"/>
<text class="name" x="24" y="535.5">layout-structure</text>
<rect class="hollow-gain" x="320" y="524" width="120" height="14" rx="2"/>
<text class="val" x="446" y="535.5">+0.30†<tspan class="tag" dx="6">marginal</tspan></text>
<text x="800" y="535.5" text-anchor="end">3 / 2 / 2</text>
<text x="920" y="535.5" text-anchor="end">7</text>
<line class="row" x1="24" y1="570" x2="936" y2="570"/>
<text class="name" x="24" y="561.5">positioning-and-messaging</text>
<rect class="bar-gain" x="320" y="550" width="105.6" height="14" rx="2"/>
<text class="val" x="431.6" y="561.5">+0.26</text>
<text x="800" y="561.5" text-anchor="end">4 / 0 / 3</text>
<text x="920" y="561.5" text-anchor="end">7</text>
<line class="row" x1="24" y1="596" x2="936" y2="596"/>
<text class="name" x="24" y="587.5">spacing-and-grouping</text>
<rect class="bar-gain" x="320" y="576" width="102" height="14" rx="2"/>
<text class="val" x="428" y="587.5">+0.25†</text>
<text x="800" y="587.5" text-anchor="end">5 / 3 / 1</text>
<text x="920" y="587.5" text-anchor="end">9</text>
<line class="row" x1="24" y1="622" x2="936" y2="622"/>
<text class="name" x="24" y="613.5">honest-claims</text>
<rect class="bar-gain" x="320" y="602" width="84" height="14" rx="2"/>
<text class="val" x="410" y="613.5">+0.21</text>
<text x="800" y="613.5" text-anchor="end">5 / 1 / 4</text>
<text x="920" y="613.5" text-anchor="end">10</text>
<line class="row" x1="24" y1="648" x2="936" y2="648"/>
<text class="name" x="24" y="639.5">color-palette</text>
<rect class="bar-gain" x="320" y="628" width="77.2" height="14" rx="2"/>
<text class="val" x="403.2" y="639.5">+0.19</text>
<text x="800" y="639.5" text-anchor="end">5 / 2 / 2</text>
<text x="920" y="639.5" text-anchor="end">9</text>
<line class="row" x1="24" y1="674" x2="936" y2="674"/>
<text class="name" x="24" y="665.5">teaching-interfaces</text>
<rect class="bar-gain" x="320" y="654" width="74.4" height="14" rx="2"/>
<text class="val" x="400.4" y="665.5">+0.19</text>
<text x="800" y="665.5" text-anchor="end">5 / 2 / 2</text>
<text x="920" y="665.5" text-anchor="end">9</text>
<line class="row" x1="24" y1="700" x2="936" y2="700"/>
<text class="name" x="24" y="691.5">typeface-selection</text>
<rect class="hollow-gain" x="320" y="680" width="57.2" height="14" rx="2"/>
<text class="val" x="383.2" y="691.5">+0.14<tspan class="tag" dx="6">marginal</tspan></text>
<text x="800" y="691.5" text-anchor="end">4 / 2 / 1</text>
<text x="920" y="691.5" text-anchor="end">7</text>
<line class="row" x1="24" y1="726" x2="936" y2="726"/>
<text class="name" x="24" y="717.5">offers-and-value-propositions</text>
<rect class="hollow-gain" x="320" y="706" width="53.6" height="14" rx="2"/>
<text class="val" x="379.6" y="717.5">+0.13<tspan class="tag" dx="6">marginal</tspan></text>
<text x="800" y="717.5" text-anchor="end">4 / 3 / 1</text>
<text x="920" y="717.5" text-anchor="end">8</text>
<line class="row" x1="24" y1="752" x2="936" y2="752"/>
<text class="name" x="24" y="743.5">chart-design</text>
<rect class="hollow-gain" x="320" y="732" width="51.6" height="14" rx="2"/>
<text class="val" x="377.6" y="743.5">+0.13<tspan class="tag" dx="6">marginal</tspan></text>
<text x="800" y="743.5" text-anchor="end">5 / 1 / 3</text>
<text x="920" y="743.5" text-anchor="end">9</text>
<line class="row" x1="24" y1="778" x2="936" y2="778"/>
<text class="name" x="24" y="769.5">design-system-builder</text>
<rect class="hollow-gain" x="320" y="758" width="51.6" height="14" rx="2"/>
<text class="val" x="377.6" y="769.5">+0.13<tspan class="tag" dx="6">marginal</tspan></text>
<text x="800" y="769.5" text-anchor="end">3 / 2 / 4</text>
<text x="920" y="769.5" text-anchor="end">9</text>
<line class="row" x1="24" y1="804" x2="936" y2="804"/>
<text class="name" x="24" y="795.5">ui-motion</text>
<rect class="hollow-loss" x="318" y="784" width="2" height="14" rx="2"/>
<text class="val" x="326" y="795.5">0.00†<tspan class="tag" dx="6">marginal</tspan></text>
<text x="800" y="795.5" text-anchor="end">4 / 1 / 3</text>
<text x="920" y="795.5" text-anchor="end">8</text>
<line class="zero" x1="320" y1="120" x2="320" y2="804"/>
<text class="note" x="24" y="832">Loaded-only: counts only runs where the skill actually loaded; ten tasks per skill; judge Opus, generator Sonnet.</text>
<text class="note" x="24" y="854">Hollow bar = marginal pass: rubric edge under +0.15, fewer than 7 tasks with a loaded sample, or a win margin of one task or less.</text>
<text class="note" x="24" y="876">† One answer per side; the rubric mean covers every pair, the wins / losses / ties are loaded-only.</text>
</svg>
